<svg width="50" height="50" viewBox="0 0 50 50" fill="none" xmlns="http://www.w3.org/2000/svg">
<path d="M15.625 9.375C11.481 9.375 7.50671 11.0212 4.57646 13.9515C1.6462 16.8817 0 20.856 0 25C0 29.144 1.6462 33.1183 4.57646 36.0485C7.50671 38.9788 11.481 40.625 15.625 40.625H34.375C38.519 40.625 42.4933 38.9788 45.4235 36.0485C48.3538 33.1183 50 29.144 50 25C50 20.856 48.3538 16.8817 45.4235 13.9515C42.4933 11.0212 38.519 9.375 34.375 9.375H15.625ZM34.375 37.5C31.0598 37.5 27.8804 36.183 25.5362 33.8388C23.192 31.4946 21.875 28.3152 21.875 25C21.875 21.6848 23.192 18.5054 25.5362 16.1612C27.8804 13.817 31.0598 12.5 34.375 12.5C37.6902 12.5 40.8696 13.817 43.2138 16.1612C45.558 18.5054 46.875 21.6848 46.875 25C46.875 28.3152 45.558 31.4946 43.2138 33.8388C40.8696 36.183 37.6902 37.5 34.375 37.5Z" fill="#F6F6F6"/>
</svg>
