<svg width="50" height="50" viewBox="0 0 50 50" fill="none" xmlns="http://www.w3.org/2000/svg">
<path d="M40.979 10.456C40.9662 10.4312 40.9451 10.4119 40.9193 10.4013C37.9409 9.03478 34.7979 8.06035 31.5688 7.50239C31.5395 7.49694 31.5092 7.50087 31.4822 7.51363C31.4552 7.5264 31.433 7.54734 31.4186 7.57348C30.9906 8.35027 30.6021 9.14816 30.2545 9.96411C26.7738 9.43574 23.2332 9.43574 19.7525 9.96411C19.4026 9.14609 19.0079 8.348 18.5701 7.57348C18.5551 7.54791 18.5327 7.52745 18.5059 7.51477C18.4791 7.50209 18.4491 7.49777 18.4198 7.50239C15.1904 8.05918 12.0471 9.03369 9.06914 10.4014C9.04364 10.4122 9.02213 10.4306 9.00757 10.4542C3.05218 19.3478 1.42078 28.0227 2.22109 36.5902C2.22334 36.6112 2.22979 36.6315 2.24006 36.65C2.25033 36.6684 2.2642 36.6846 2.28086 36.6976C5.74862 39.2652 9.62737 41.2251 13.7516 42.4936C13.7806 42.5024 13.8116 42.502 13.8404 42.4925C13.8692 42.4831 13.8945 42.465 13.9127 42.4408C14.7985 41.2356 15.5834 39.9593 16.2594 38.625C16.2687 38.6067 16.274 38.5867 16.2749 38.5662C16.2759 38.5456 16.2725 38.5252 16.265 38.5061C16.2575 38.487 16.246 38.4697 16.2313 38.4553C16.2166 38.441 16.199 38.4299 16.1798 38.4229C14.9421 37.9493 13.7438 37.3784 12.5963 36.7156C12.5755 36.7033 12.558 36.6861 12.5454 36.6655C12.5327 36.6449 12.5254 36.6215 12.5239 36.5973C12.5225 36.5732 12.5271 36.5491 12.5372 36.5271C12.5473 36.5051 12.5626 36.486 12.5819 36.4714C12.8227 36.291 13.0636 36.1033 13.2935 35.9138C13.3139 35.897 13.3387 35.8862 13.3649 35.8827C13.3911 35.8791 13.4178 35.883 13.442 35.8938C20.9598 39.3248 29.099 39.3248 36.5279 35.8938C36.5521 35.8823 36.5791 35.8779 36.6057 35.8811C36.6323 35.8843 36.6574 35.895 36.6782 35.912C36.9082 36.1015 37.1491 36.291 37.3916 36.4714C37.411 36.4859 37.4265 36.5049 37.4367 36.5268C37.447 36.5486 37.4517 36.5727 37.4505 36.5969C37.4492 36.621 37.442 36.6445 37.4296 36.6652C37.4171 36.6859 37.3997 36.7032 37.379 36.7156C36.2341 37.384 35.0348 37.9545 33.7938 38.4211C33.7746 38.4284 33.757 38.4397 33.7425 38.4543C33.7279 38.4688 33.7165 38.4863 33.7091 38.5056C33.7018 38.5248 33.6985 38.5454 33.6997 38.566C33.7008 38.5866 33.7063 38.6067 33.7157 38.625C34.403 39.9519 35.1867 41.2265 36.0605 42.4387C36.0783 42.4636 36.1034 42.4822 36.1323 42.4921C36.1612 42.5019 36.1925 42.5023 36.2217 42.4934C40.3533 41.2292 44.2388 39.2691 47.7109 36.6976C47.7278 36.6853 47.7419 36.6695 47.7522 36.6513C47.7625 36.6331 47.7688 36.6128 47.7707 36.592C48.7288 26.6871 46.1666 18.0832 40.979 10.456ZM17.3821 31.3735C15.1187 31.3735 13.2537 29.2964 13.2537 26.7454C13.2537 24.1945 15.0825 22.1172 17.3821 22.1172C19.6997 22.1172 21.5466 24.2125 21.5105 26.7453C21.5105 29.2964 19.6816 31.3735 17.3821 31.3735ZM32.6462 31.3735C30.3828 31.3735 28.5178 29.2964 28.5178 26.7454C28.5178 24.1945 30.3466 22.1172 32.6462 22.1172C34.9639 22.1172 36.8108 24.2125 36.7746 26.7453C36.7746 29.2964 34.9639 31.3735 32.6462 31.3735Z" fill="black"/>
</svg>
