<svg width="24" height="24" viewBox="0 0 24 24" fill="none" xmlns="http://www.w3.org/2000/svg">
<path d="M13.0845 24C16.7762 24 20.1618 22.3217 22.4053 19.5574C23.7304 17.9247 22.2854 15.5392 20.2374 15.9293C16.3773 16.6644 12.8184 13.7136 12.8184 9.79837C12.8184 7.5285 14.0399 5.47219 15.9793 4.36856C17.7955 3.33497 17.3387 0.581625 15.2752 0.200484C14.5526 0.0672256 13.8193 0.000119827 13.0845 0C6.45822 0 1.08447 5.3707 1.08447 12C1.08447 18.6263 6.45522 24 13.0845 24ZM13.0845 2.25C13.6931 2.25 14.2886 2.3063 14.8665 2.41303C12.2996 3.8738 10.5684 6.63375 10.5684 9.79837C10.5684 15.135 15.4265 19.1359 20.6583 18.1395C18.8707 20.3421 16.1422 21.75 13.0845 21.75C7.69971 21.75 3.33447 17.3848 3.33447 12C3.33447 6.61523 7.69971 2.25 13.0845 2.25Z" fill="#EAEAEA"/>
</svg>
