<svg width="50" height="50" viewBox="0 0 50 50" fill="none" xmlns="http://www.w3.org/2000/svg">
<path d="M40.3223 9.48242C36.2305 5.38086 30.7812 3.125 24.9902 3.125C13.0371 3.125 3.31055 12.8516 3.31055 24.8047C3.31055 28.623 4.30664 32.3535 6.20117 35.6445L3.125 46.875L14.6191 43.8574C17.7832 45.5859 21.3477 46.4941 24.9805 46.4941H24.9902C36.9336 46.4941 46.875 36.7676 46.875 24.8145C46.875 19.0234 44.4141 13.584 40.3223 9.48242ZM24.9902 42.8418C21.748 42.8418 18.5742 41.9727 15.8105 40.332L15.1562 39.9414L8.33984 41.7285L10.1562 35.0781L9.72656 34.3945C7.91992 31.5234 6.97266 28.2129 6.97266 24.8047C6.97266 14.873 15.0586 6.78711 25 6.78711C29.8145 6.78711 34.3359 8.66211 37.7344 12.0703C41.1328 15.4785 43.2227 20 43.2129 24.8145C43.2129 34.7559 34.9219 42.8418 24.9902 42.8418ZM34.873 29.3457C34.3359 29.0723 31.6699 27.7637 31.1719 27.5879C30.6738 27.4023 30.3125 27.3145 29.9512 27.8613C29.5898 28.4082 28.5547 29.6191 28.2324 29.9902C27.9199 30.3516 27.5977 30.4004 27.0605 30.127C23.877 28.5352 21.7871 27.2852 19.6875 23.6816C19.1309 22.7246 20.2441 22.793 21.2793 20.7227C21.4551 20.3613 21.3672 20.0488 21.2305 19.7754C21.0937 19.502 20.0098 16.8359 19.5605 15.752C19.1211 14.6973 18.6719 14.8438 18.3398 14.8242C18.0273 14.8047 17.666 14.8047 17.3047 14.8047C16.9434 14.8047 16.3574 14.9414 15.8594 15.4785C15.3613 16.0254 13.9648 17.334 13.9648 20C13.9648 22.666 15.9082 25.2441 16.1719 25.6055C16.4453 25.9668 19.9902 31.4355 25.4297 33.7891C28.8672 35.2734 30.2148 35.4004 31.9336 35.1465C32.9785 34.9902 35.1367 33.8379 35.5859 32.5684C36.0352 31.2988 36.0352 30.2148 35.8984 29.9902C35.7715 29.7461 35.4102 29.6094 34.873 29.3457Z" fill="#EAEAEA"/>
</svg>
